<svg width="24" height="26" viewBox="0 0 24 26" fill="none" xmlns="http://www.w3.org/2000/svg">
<g filter="url(#filter0_d_89_933)">
<path d="M4.68256 3.56756C4.62445 3.50945 4.57835 3.44046 4.5469 3.36454C4.51545 3.28861 4.49927 3.20724 4.49927 3.12506C4.49927 3.04288 4.51545 2.9615 4.5469 2.88558C4.57835 2.80965 4.62445 2.74067 4.68256 2.68256C4.74067 2.62445 4.80965 2.57835 4.88558 2.5469C4.9615 2.51545 5.04288 2.49927 5.12506 2.49927C5.20724 2.49927 5.28861 2.51545 5.36454 2.5469C5.44046 2.57835 5.50945 2.62445 5.56756 2.68256L12.0001 9.11631L18.4326 2.68256C18.4907 2.62445 18.5597 2.57835 18.6356 2.5469C18.7115 2.51545 18.7929 2.49927 18.8751 2.49927C18.9572 2.49927 19.0386 2.51545 19.1145 2.5469C19.1905 2.57835 19.2594 2.62445 19.3176 2.68256C19.3757 2.74067 19.4218 2.80965 19.4532 2.88558C19.4847 2.9615 19.5008 3.04288 19.5008 3.12506C19.5008 3.20724 19.4847 3.28861 19.4532 3.36454C19.4218 3.44046 19.3757 3.50945 19.3176 3.56756L12.8838 10.0001L19.3176 16.4326C19.3757 16.4907 19.4218 16.5597 19.4532 16.6356C19.4847 16.7115 19.5008 16.7929 19.5008 16.8751C19.5008 16.9572 19.4847 17.0386 19.4532 17.1145C19.4218 17.1905 19.3757 17.2594 19.3176 17.3176C19.2594 17.3757 19.1905 17.4218 19.1145 17.4532C19.0386 17.4847 18.9572 17.5008 18.8751 17.5008C18.7929 17.5008 18.7115 17.4847 18.6356 17.4532C18.5597 17.4218 18.4907 17.3757 18.4326 17.3176L12.0001 10.8838L5.56756 17.3176C5.50945 17.3757 5.44046 17.4218 5.36454 17.4532C5.28861 17.4847 5.20724 17.5008 5.12506 17.5008C5.04288 17.5008 4.9615 17.4847 4.88558 17.4532C4.80965 17.4218 4.74067 17.3757 4.68256 17.3176C4.62445 17.2594 4.57835 17.1905 4.5469 17.1145C4.51545 17.0386 4.49927 16.9572 4.49927 16.8751C4.49927 16.7929 4.51545 16.7115 4.5469 16.6356C4.57835 16.5597 4.62445 16.4907 4.68256 16.4326L11.1163 10.0001L4.68256 3.56756Z" fill="black"/>
</g>
<defs>
<filter id="filter0_d_89_933" x="-2" y="0" width="28" height="28" filterUnits="userSpaceOnUse" color-interpolation-filters="sRGB">
<feFlood flood-opacity="0" result="BackgroundImageFix"/>
<feColorMatrix in="SourceAlpha" type="matrix" values="0 0 0 0 0 0 0 0 0 0 0 0 0 0 0 0 0 0 127 0" result="hardAlpha"/>
<feOffset dy="4"/>
<feGaussianBlur stdDeviation="2"/>
<feComposite in2="hardAlpha" operator="out"/>
<feColorMatrix type="matrix" values="0 0 0 0 0 0 0 0 0 0 0 0 0 0 0 0 0 0 0.25 0"/>
<feBlend mode="normal" in2="BackgroundImageFix" result="effect1_dropShadow_89_933"/>
<feBlend mode="normal" in="SourceGraphic" in2="effect1_dropShadow_89_933" result="shape"/>
</filter>
</defs>
</svg>
