<svg width="24" height="26" viewBox="0 0 24 26" fill="none" xmlns="http://www.w3.org/2000/svg">
<g filter="url(#filter0_d_89_888)">
<path d="M4.68256 3.56731C4.62445 3.5092 4.57835 3.44022 4.5469 3.36429C4.51545 3.28837 4.49927 3.20699 4.49927 3.12481C4.49927 3.04263 4.51545 2.96126 4.5469 2.88533C4.57835 2.80941 4.62445 2.74042 4.68256 2.68231C4.74067 2.6242 4.80965 2.57811 4.88558 2.54666C4.9615 2.51521 5.04288 2.49902 5.12506 2.49902C5.20724 2.49902 5.28861 2.51521 5.36454 2.54666C5.44046 2.57811 5.50945 2.6242 5.56756 2.68231L12.0001 9.11606L18.4326 2.68231C18.4907 2.6242 18.5597 2.57811 18.6356 2.54666C18.7115 2.51521 18.7929 2.49902 18.8751 2.49902C18.9572 2.49902 19.0386 2.51521 19.1145 2.54666C19.1905 2.57811 19.2594 2.6242 19.3176 2.68231C19.3757 2.74042 19.4218 2.80941 19.4532 2.88533C19.4847 2.96126 19.5008 3.04263 19.5008 3.12481C19.5008 3.20699 19.4847 3.28837 19.4532 3.36429C19.4218 3.44022 19.3757 3.5092 19.3176 3.56731L12.8838 9.99981L19.3176 16.4323C19.3757 16.4904 19.4218 16.5594 19.4532 16.6353C19.4847 16.7113 19.5008 16.7926 19.5008 16.8748C19.5008 16.957 19.4847 17.0384 19.4532 17.1143C19.4218 17.1902 19.3757 17.2592 19.3176 17.3173C19.2594 17.3754 19.1905 17.4215 19.1145 17.453C19.0386 17.4844 18.9572 17.5006 18.8751 17.5006C18.7929 17.5006 18.7115 17.4844 18.6356 17.453C18.5597 17.4215 18.4907 17.3754 18.4326 17.3173L12.0001 10.8836L5.56756 17.3173C5.50945 17.3754 5.44046 17.4215 5.36454 17.453C5.28861 17.4844 5.20724 17.5006 5.12506 17.5006C5.04288 17.5006 4.9615 17.4844 4.88558 17.453C4.80965 17.4215 4.74067 17.3754 4.68256 17.3173C4.62445 17.2592 4.57835 17.1902 4.5469 17.1143C4.51545 17.0384 4.49927 16.957 4.49927 16.8748C4.49927 16.7926 4.51545 16.7113 4.5469 16.6353C4.57835 16.5594 4.62445 16.4904 4.68256 16.4323L11.1163 9.99981L4.68256 3.56731Z" fill="black"/>
</g>
<defs>
<filter id="filter0_d_89_888" x="-2" y="0" width="28" height="28" filterUnits="userSpaceOnUse" color-interpolation-filters="sRGB">
<feFlood flood-opacity="0" result="BackgroundImageFix"/>
<feColorMatrix in="SourceAlpha" type="matrix" values="0 0 0 0 0 0 0 0 0 0 0 0 0 0 0 0 0 0 127 0" result="hardAlpha"/>
<feOffset dy="4"/>
<feGaussianBlur stdDeviation="2"/>
<feComposite in2="hardAlpha" operator="out"/>
<feColorMatrix type="matrix" values="0 0 0 0 0 0 0 0 0 0 0 0 0 0 0 0 0 0 0.25 0"/>
<feBlend mode="normal" in2="BackgroundImageFix" result="effect1_dropShadow_89_888"/>
<feBlend mode="normal" in="SourceGraphic" in2="effect1_dropShadow_89_888" result="shape"/>
</filter>
</defs>
</svg>
