<svg width="32" height="32" viewBox="0 0 32 32" fill="none" xmlns="http://www.w3.org/2000/svg">
<g clip-path="url(#clip0_144_4)" filter="url(#filter0_d_144_4)">
<path d="M30 14C30 17.713 28.525 21.274 25.8995 23.8995C23.274 26.525 19.713 28 16 28C12.287 28 8.72601 26.525 6.10051 23.8995C3.475 21.274 2 17.713 2 14C2 10.287 3.475 6.72601 6.10051 4.10051C8.72601 1.475 12.287 0 16 0C19.713 0 23.274 1.475 25.8995 4.10051C28.525 6.72601 30 10.287 30 14ZM9.875 13.125C9.64294 13.125 9.42038 13.2172 9.25628 13.3813C9.09219 13.5454 9 13.7679 9 14C9 14.2321 9.09219 14.4546 9.25628 14.6187C9.42038 14.7828 9.64294 14.875 9.875 14.875H22.125C22.3571 14.875 22.5796 14.7828 22.7437 14.6187C22.9078 14.4546 23 14.2321 23 14C23 13.7679 22.9078 13.5454 22.7437 13.3813C22.5796 13.2172 22.3571 13.125 22.125 13.125H9.875Z" fill="white"/>
</g>
<defs>
<filter id="filter0_d_144_4" x="0" y="0" width="32" height="32" filterUnits="userSpaceOnUse" color-interpolation-filters="sRGB">
<feFlood flood-opacity="0" result="BackgroundImageFix"/>
<feColorMatrix in="SourceAlpha" type="matrix" values="0 0 0 0 0 0 0 0 0 0 0 0 0 0 0 0 0 0 127 0" result="hardAlpha"/>
<feOffset dy="2"/>
<feGaussianBlur stdDeviation="1"/>
<feComposite in2="hardAlpha" operator="out"/>
<feColorMatrix type="matrix" values="0 0 0 0 0 0 0 0 0 0 0 0 0 0 0 0 0 0 0.25 0"/>
<feBlend mode="normal" in2="BackgroundImageFix" result="effect1_dropShadow_144_4"/>
<feBlend mode="normal" in="SourceGraphic" in2="effect1_dropShadow_144_4" result="shape"/>
</filter>
<clipPath id="clip0_144_4">
<rect width="28" height="28" fill="white" transform="translate(2)"/>
</clipPath>
</defs>
</svg>
