<svg width="48" height="48" viewBox="0 0 48 48" fill="none" xmlns="http://www.w3.org/2000/svg">
<g clip-path="url(#clip0_89_698)">
<g filter="url(#filter0_d_89_698)">
<path d="M19.5 43.5V32.985C19.5 32.25 20.25 31.5 21 31.5H27C27.75 31.5 28.5 32.25 28.5 33V43.5C28.5 43.8978 28.658 44.2794 28.9393 44.5607C29.2206 44.842 29.6022 45 30 45H42C42.3978 45 42.7794 44.842 43.0607 44.5607C43.342 44.2794 43.5 43.8978 43.5 43.5V22.5C43.5004 22.3029 43.4618 22.1076 43.3867 21.9254C43.3115 21.7432 43.2012 21.5776 43.062 21.438L39 17.379V7.5C39 7.10217 38.842 6.72064 38.5607 6.43934C38.2794 6.15803 37.8978 6 37.5 6H34.5C34.1022 6 33.7206 6.15803 33.4393 6.43934C33.158 6.72064 33 7.10217 33 7.5V11.379L25.062 3.438C24.9227 3.29831 24.7571 3.18748 24.5749 3.11186C24.3927 3.03624 24.1973 2.99731 24 2.99731C23.8027 2.99731 23.6073 3.03624 23.4251 3.11186C23.2429 3.18748 23.0773 3.29831 22.938 3.438L4.938 21.438C4.7988 21.5776 4.68846 21.7432 4.61331 21.9254C4.53815 22.1076 4.49965 22.3029 4.5 22.5V43.5C4.5 43.8978 4.65804 44.2794 4.93934 44.5607C5.22065 44.842 5.60218 45 6 45H18C18.3978 45 18.7794 44.842 19.0607 44.5607C19.342 44.2794 19.5 43.8978 19.5 43.5Z" fill="black"/>
</g>
</g>
<defs>
<filter id="filter0_d_89_698" x="0.5" y="2.99731" width="47" height="50.0027" filterUnits="userSpaceOnUse" color-interpolation-filters="sRGB">
<feFlood flood-opacity="0" result="BackgroundImageFix"/>
<feColorMatrix in="SourceAlpha" type="matrix" values="0 0 0 0 0 0 0 0 0 0 0 0 0 0 0 0 0 0 127 0" result="hardAlpha"/>
<feOffset dy="4"/>
<feGaussianBlur stdDeviation="2"/>
<feComposite in2="hardAlpha" operator="out"/>
<feColorMatrix type="matrix" values="0 0 0 0 0 0 0 0 0 0 0 0 0 0 0 0 0 0 0.25 0"/>
<feBlend mode="normal" in2="BackgroundImageFix" result="effect1_dropShadow_89_698"/>
<feBlend mode="normal" in="SourceGraphic" in2="effect1_dropShadow_89_698" result="shape"/>
</filter>
<clipPath id="clip0_89_698">
<rect width="48" height="48" fill="white"/>
</clipPath>
</defs>
</svg>
